<svg xmlns="http://www.w3.org/2000/svg" width="256" height="256" viewBox="0 0 128 128">
<path d="M64 6C98 5 122 31 122 64s-25 59-59 58S5 97 6 63 31 6 64 6Z" fill="#f2e3bd" stroke="#261f18" stroke-width="8"/>
<path d="M24 28Q63-5 105 32" fill="none" stroke="#b0392a" stroke-width="8" stroke-linecap="round"/>
<g transform="translate(20 20) scale(.69)"><g fill="#b56c59" stroke="#682f29" stroke-width="3.5" stroke-linecap="round" stroke-linejoin="round"><path d="m17 20 66-3 5 93-70 5Z" fill="#f2e3bd"/><path d="M37 12h28v17H37Z" fill="#b56c59"/><path d="M31 43h35M31 58h23M31 78l8 8 12-14" fill="none"/><circle cx="86" cy="76" r="25" fill="#f2e3bd"/><circle cx="86" cy="76" r="16" fill="#f2e3bd"/><path d="m104 96 13 17" stroke-width="6"/><path d="m80 73 7-7" stroke="#f2e3bd" stroke-width="3.6"/></g>
</g></svg>
